# Blender v2.79 (sub 0) OBJ File: ''
# www.blender.org
o Cube_Cube.001
v -0.878472 0.000000 0.000000
v -0.819444 0.000000 0.350694
v -0.819444 0.350694 0.000000
v -0.819444 0.000000 -0.350694
v -0.819444 -0.350694 0.000000
v -0.763889 -0.326389 0.326389
v -0.763889 0.326389 0.326389
v -0.763889 0.326389 -0.326389
v -0.763889 -0.326389 -0.326389
v 0.000000 0.000000 -0.878472
v -0.350694 0.000000 -0.819444
v 0.000000 0.350694 -0.819444
v 0.350694 0.000000 -0.819444
v 0.000000 -0.350694 -0.819444
v -0.326389 -0.326389 -0.763889
v -0.326389 0.326389 -0.763889
v 0.326389 0.326389 -0.763889
v 0.326389 -0.326389 -0.763889
v 0.878472 0.000000 0.000000
v 0.819444 0.000000 -0.350694
v 0.819444 0.350694 0.000000
v 0.819444 0.000000 0.350694
v 0.819444 -0.350694 0.000000
v 0.763889 -0.326389 -0.326389
v 0.763889 0.326389 -0.326389
v 0.763889 0.326389 0.326389
v 0.763889 -0.326389 0.326389
v 0.000000 0.000000 0.878472
v 0.350694 0.000000 0.819444
v 0.000000 0.350694 0.819444
v -0.350694 0.000000 0.819444
v 0.000000 -0.350694 0.819444
v 0.326389 -0.326389 0.763889
v 0.326389 0.326389 0.763889
v -0.326389 0.326389 0.763889
v -0.326389 -0.326389 0.763889
v 0.000000 -0.878472 0.000000
v 0.000000 -0.819444 -0.350694
v 0.350694 -0.819444 0.000000
v 0.000000 -0.819444 0.350694
v -0.350694 -0.819444 0.000000
v -0.326389 -0.763889 -0.326389
v 0.326389 -0.763889 -0.326389
v 0.326389 -0.763889 0.326389
v -0.326389 -0.763889 0.326389
v 0.000000 0.878472 0.000000
v 0.000000 0.819444 -0.350694
v -0.350694 0.819444 0.000000
v 0.000000 0.819444 0.350694
v 0.350694 0.819444 0.000000
v 0.326389 0.763889 -0.326389
v -0.326389 0.763889 -0.326389
v -0.326389 0.763889 0.326389
v 0.326389 0.763889 0.326389
v -0.598958 -0.598958 -0.302083
v -0.643229 -0.643229 0.000000
v -0.598958 -0.598958 0.302083
v -0.598958 -0.302083 0.598958
v -0.643229 0.000000 0.643229
v -0.598958 0.302083 0.598958
v -0.598958 0.598958 0.302083
v -0.643229 0.643229 0.000000
v -0.598958 0.598958 -0.302083
v -0.598958 0.302083 -0.598958
v -0.643229 0.000000 -0.643229
v -0.598958 -0.302083 -0.598958
v 0.302083 -0.598958 -0.598958
v 0.000000 -0.643229 -0.643229
v -0.302083 -0.598958 -0.598958
v -0.302083 0.598958 -0.598958
v 0.000000 0.643229 -0.643229
v 0.302083 0.598958 -0.598958
v 0.598958 0.302083 -0.598958
v 0.643229 0.000000 -0.643229
v 0.598958 -0.302083 -0.598958
v 0.598958 -0.598958 0.302083
v 0.643229 -0.643229 0.000000
v 0.598958 -0.598958 -0.302083
v 0.598958 0.598958 -0.302083
v 0.643229 0.643229 0.000000
v 0.598958 0.598958 0.302083
v 0.598958 0.302083 0.598958
v 0.643229 0.000000 0.643229
v 0.598958 -0.302083 0.598958
v -0.302083 -0.598958 0.598958
v 0.000000 -0.643229 0.643229
v 0.302083 -0.598958 0.598958
v 0.302083 0.598958 0.598958
v 0.000000 0.643229 0.643229
v -0.302083 0.598958 0.598958
v -0.509259 -0.509259 0.509259
v -0.509259 0.509259 0.509259
v -0.509259 -0.509259 -0.509259
v -0.509259 0.509259 -0.509259
v 0.509259 -0.509259 0.509259
v 0.509259 0.509259 0.509259
v 0.509259 -0.509259 -0.509259
v 0.509259 0.509259 -0.509259
vt 0.493615 0.480490
vt 0.727348 0.246757
vt 0.727348 0.480490
vt 0.961080 0.246757
vt 0.961080 0.480490
vt 0.493615 0.246757
vt 0.727348 0.013025
vt 0.961080 0.013025
vt 0.727348 0.714222
vt 0.493615 0.714222
vt 0.727348 0.947955
vt 0.493615 0.947955
vt 0.961080 0.714222
vt 0.961080 0.947955
vt 0.259883 0.714222
vt 0.259883 0.480490
vt 0.026150 0.714222
vt 0.026150 0.480490
vt 0.259883 0.947955
vt 0.026150 0.947955
vt 0.259883 0.246757
vt 0.259883 0.013025
vt 0.493615 0.013025
vt 0.026150 0.246757
vt 0.026150 0.013025
vt 0.500801 0.385939
vt 0.741891 0.197429
vt 0.741891 0.385939
vt 0.982981 0.197429
vt 0.982981 0.385939
vt 0.500801 0.197429
vt 0.741891 0.008918
vt 0.982981 0.008918
vt 0.741891 0.574450
vt 0.500801 0.574450
vt 0.741891 0.762961
vt 0.500801 0.762961
vt 0.982981 0.574450
vt 0.982981 0.762961
vt 0.259711 0.574450
vt 0.259711 0.385939
vt 0.018621 0.574450
vt 0.018621 0.385940
vt 0.259711 0.762961
vt 0.018621 0.762961
vt 0.259711 0.197429
vt 0.259711 0.008918
vt 0.500801 0.008918
vt 0.018621 0.197429
vt 0.018621 0.008918
vt 0.496545 0.469828
vt 0.717641 0.245694
vt 0.717641 0.469828
vt 0.938738 0.245694
vt 0.938738 0.469828
vt 0.496545 0.245694
vt 0.717641 0.021560
vt 0.938738 0.021560
vt 0.717641 0.693962
vt 0.496545 0.693962
vt 0.717641 0.918096
vt 0.496545 0.918097
vt 0.938738 0.693962
vt 0.938738 0.918096
vt 0.275448 0.693962
vt 0.275448 0.469828
vt 0.054351 0.693963
vt 0.054351 0.469828
vt 0.275448 0.918097
vt 0.054351 0.918097
vt 0.275448 0.245694
vt 0.275448 0.021560
vt 0.496544 0.021560
vt 0.054351 0.245694
vt 0.054351 0.021560
vt 0.500000 0.462324
vt 0.725198 0.237126
vt 0.725198 0.462324
vt 0.950396 0.237126
vt 0.950396 0.462324
vt 0.500000 0.237126
vt 0.725198 0.011928
vt 0.950396 0.011928
vt 0.725198 0.687522
vt 0.500000 0.687522
vt 0.725198 0.912720
vt 0.500000 0.912720
vt 0.950396 0.687522
vt 0.950396 0.912720
vt 0.274802 0.687522
vt 0.274802 0.462324
vt 0.049604 0.687522
vt 0.049604 0.462324
vt 0.274802 0.912720
vt 0.049604 0.912720
vt 0.274802 0.237126
vt 0.274802 0.011928
vt 0.500000 0.011928
vt 0.049604 0.237126
vt 0.049604 0.011928
vt 0.501327 0.418801
vt 0.734503 0.213601
vt 0.501327 0.213601
vt 0.734503 0.008401
vt 0.501327 0.008401
vt 0.734503 0.418801
vt 0.967679 0.213601
vt 0.967679 0.008401
vt 0.268151 0.213601
vt 0.268151 0.418801
vt 0.034976 0.213601
vt 0.034976 0.418801
vt 0.268151 0.008401
vt 0.034976 0.008401
vt 0.268151 0.624001
vt 0.501327 0.624001
vt 0.268151 0.829200
vt 0.501327 0.829200
vt 0.034976 0.624001
vt 0.034976 0.829200
vt 0.734503 0.624001
vt 0.967679 0.624001
vt 0.967679 0.418801
vt 0.734503 0.829200
vt 0.967679 0.829200
vt 0.498673 0.437122
vt 0.729667 0.650928
vt 0.498673 0.650928
vt 0.729667 0.864734
vt 0.498673 0.864734
vt 0.729667 0.437122
vt 0.960661 0.650928
vt 0.960661 0.864734
vt 0.267679 0.650928
vt 0.267679 0.437122
vt 0.036685 0.650928
vt 0.036685 0.437122
vt 0.267679 0.864734
vt 0.036685 0.864734
vt 0.267679 0.223317
vt 0.498673 0.223317
vt 0.267679 0.009511
vt 0.498673 0.009511
vt 0.036685 0.223317
vt 0.036685 0.009511
vt 0.729667 0.223317
vt 0.960660 0.223317
vt 0.960660 0.437122
vt 0.729667 0.009511
vt 0.960660 0.009511
vn -0.9705 -0.1774 0.1634
vn -0.8398 -0.1972 0.5059
vn -0.8342 -0.5209 0.1808
vn -0.7123 -0.5149 0.4769
vn -0.9705 0.1634 0.1774
vn -0.8398 0.5059 0.1972
vn -0.8342 0.1808 0.5209
vn -0.7123 0.4769 0.5149
vn -0.9705 0.1774 -0.1634
vn -0.8398 0.1972 -0.5059
vn -0.8342 0.5209 -0.1808
vn -0.7123 0.5149 -0.4769
vn -0.9705 -0.1634 -0.1774
vn -0.8398 -0.5059 -0.1972
vn -0.8342 -0.1808 -0.5209
vn -0.7123 -0.4769 -0.5149
vn -0.1634 -0.1774 -0.9705
vn -0.5059 -0.1972 -0.8398
vn -0.1808 -0.5209 -0.8342
vn -0.4769 -0.5149 -0.7123
vn -0.1774 0.1634 -0.9705
vn -0.1972 0.5059 -0.8398
vn -0.5209 0.1808 -0.8342
vn -0.5149 0.4769 -0.7123
vn 0.1634 0.1774 -0.9705
vn 0.5059 0.1972 -0.8398
vn 0.1808 0.5209 -0.8342
vn 0.4769 0.5149 -0.7123
vn 0.1774 -0.1634 -0.9705
vn 0.1972 -0.5059 -0.8398
vn 0.5209 -0.1808 -0.8342
vn 0.5149 -0.4769 -0.7123
vn 0.9705 -0.1774 -0.1634
vn 0.8398 -0.1972 -0.5059
vn 0.8342 -0.5209 -0.1808
vn 0.7123 -0.5149 -0.4769
vn 0.9705 0.1634 -0.1774
vn 0.8398 0.5059 -0.1972
vn 0.8342 0.1808 -0.5209
vn 0.7123 0.4769 -0.5149
vn 0.9705 0.1774 0.1634
vn 0.8398 0.1972 0.5059
vn 0.8342 0.5209 0.1808
vn 0.7123 0.5149 0.4769
vn 0.9705 -0.1634 0.1774
vn 0.8398 -0.5059 0.1972
vn 0.8342 -0.1808 0.5209
vn 0.7123 -0.4769 0.5149
vn 0.1634 -0.1774 0.9705
vn 0.5059 -0.1972 0.8398
vn 0.1808 -0.5209 0.8342
vn 0.4769 -0.5149 0.7123
vn 0.1774 0.1634 0.9705
vn 0.1972 0.5059 0.8398
vn 0.5209 0.1808 0.8342
vn 0.5149 0.4769 0.7123
vn -0.1634 0.1774 0.9705
vn -0.5059 0.1972 0.8398
vn -0.1808 0.5209 0.8342
vn -0.4769 0.5149 0.7123
vn -0.1774 -0.1634 0.9705
vn -0.1972 -0.5059 0.8398
vn -0.5209 -0.1808 0.8342
vn -0.5149 -0.4769 0.7123
vn -0.1774 -0.9705 -0.1634
vn -0.1972 -0.8398 -0.5059
vn -0.5209 -0.8342 -0.1808
vn -0.5149 -0.7123 -0.4769
vn 0.1634 -0.9705 -0.1774
vn 0.5059 -0.8398 -0.1972
vn 0.1808 -0.8342 -0.5209
vn 0.4769 -0.7123 -0.5149
vn 0.1774 -0.9705 0.1634
vn 0.1972 -0.8398 0.5059
vn 0.5209 -0.8342 0.1808
vn 0.5149 -0.7123 0.4769
vn -0.1634 -0.9705 0.1774
vn -0.5059 -0.8398 0.1972
vn -0.1808 -0.8342 0.5209
vn -0.4769 -0.7123 0.5149
vn 0.1774 0.9705 -0.1634
vn 0.1972 0.8398 -0.5059
vn 0.5209 0.8342 -0.1808
vn 0.5149 0.7123 -0.4769
vn -0.1634 0.9705 -0.1774
vn -0.5059 0.8398 -0.1972
vn -0.1808 0.8342 -0.5209
vn -0.4769 0.7123 -0.5149
vn -0.1774 0.9705 0.1634
vn -0.1972 0.8398 0.5059
vn -0.5209 0.8342 0.1808
vn -0.5149 0.7123 0.4769
vn 0.1634 0.9705 0.1774
vn 0.5059 0.8398 0.1972
vn 0.1808 0.8342 0.5209
vn 0.4769 0.7123 0.5149
vn -0.9705 -0.1634 0.1774
vn -0.8342 -0.1808 0.5209
vn -0.8398 -0.5059 0.1972
vn -0.7123 -0.4769 0.5149
vn -0.9705 0.1774 0.1634
vn -0.8342 0.5209 0.1808
vn -0.8398 0.1972 0.5059
vn -0.7123 0.5149 0.4769
vn -0.9705 0.1634 -0.1774
vn -0.8342 0.1808 -0.5209
vn -0.8398 0.5059 -0.1972
vn -0.7123 0.4769 -0.5149
vn -0.9705 -0.1774 -0.1634
vn -0.8342 -0.5209 -0.1808
vn -0.8398 -0.1972 -0.5059
vn -0.7123 -0.5149 -0.4769
vn -0.1774 -0.1634 -0.9705
vn -0.5209 -0.1808 -0.8342
vn -0.1972 -0.5059 -0.8398
vn -0.5149 -0.4769 -0.7123
vn -0.1634 0.1774 -0.9705
vn -0.1808 0.5209 -0.8342
vn -0.5059 0.1972 -0.8398
vn -0.4769 0.5149 -0.7123
vn 0.1774 0.1634 -0.9705
vn 0.5209 0.1808 -0.8342
vn 0.1972 0.5059 -0.8398
vn 0.5149 0.4769 -0.7123
vn 0.1634 -0.1774 -0.9705
vn 0.1808 -0.5209 -0.8342
vn 0.5059 -0.1972 -0.8398
vn 0.4769 -0.5149 -0.7123
vn 0.9705 -0.1634 -0.1774
vn 0.8342 -0.1808 -0.5209
vn 0.8398 -0.5059 -0.1972
vn 0.7123 -0.4769 -0.5149
vn 0.9705 0.1774 -0.1634
vn 0.8342 0.5209 -0.1808
vn 0.8398 0.1972 -0.5059
vn 0.7123 0.5149 -0.4769
vn 0.9705 0.1634 0.1774
vn 0.8342 0.1808 0.5209
vn 0.8398 0.5059 0.1972
vn 0.7123 0.4769 0.5149
vn 0.9705 -0.1774 0.1634
vn 0.8342 -0.5209 0.1808
vn 0.8398 -0.1972 0.5059
vn 0.7123 -0.5149 0.4769
vn 0.1774 -0.1634 0.9705
vn 0.5209 -0.1808 0.8342
vn 0.1972 -0.5059 0.8398
vn 0.5149 -0.4769 0.7123
vn 0.1634 0.1774 0.9705
vn 0.1808 0.5209 0.8342
vn 0.5059 0.1972 0.8398
vn 0.4769 0.5149 0.7123
vn -0.1774 0.1634 0.9705
vn -0.5209 0.1808 0.8342
vn -0.1972 0.5059 0.8398
vn -0.5149 0.4769 0.7123
vn -0.1634 -0.1774 0.9705
vn -0.1808 -0.5209 0.8342
vn -0.5059 -0.1972 0.8398
vn -0.4769 -0.5149 0.7123
vn -0.1634 -0.9705 -0.1774
vn -0.1808 -0.8342 -0.5209
vn -0.5059 -0.8398 -0.1972
vn -0.4769 -0.7123 -0.5149
vn 0.1774 -0.9705 -0.1634
vn 0.5209 -0.8342 -0.1808
vn 0.1972 -0.8398 -0.5059
vn 0.5149 -0.7123 -0.4769
vn 0.1634 -0.9705 0.1774
vn 0.1808 -0.8342 0.5209
vn 0.5059 -0.8398 0.1972
vn 0.4769 -0.7123 0.5149
vn -0.1774 -0.9705 0.1634
vn -0.5209 -0.8342 0.1808
vn -0.1972 -0.8398 0.5059
vn -0.5149 -0.7123 0.4769
vn 0.1634 0.9705 -0.1774
vn 0.1808 0.8342 -0.5209
vn 0.5059 0.8398 -0.1972
vn 0.4769 0.7123 -0.5149
vn -0.1774 0.9705 -0.1634
vn -0.5209 0.8342 -0.1808
vn -0.1972 0.8398 -0.5059
vn -0.5149 0.7123 -0.4769
vn -0.1634 0.9705 0.1774
vn -0.1808 0.8342 0.5209
vn -0.5059 0.8398 0.1972
vn -0.4769 0.7123 0.5149
vn 0.1774 0.9705 0.1634
vn 0.5209 0.8342 0.1808
vn 0.1972 0.8398 0.5059
vn 0.5149 0.7123 0.4769
s off
f 1/1/1 6/2/1 2/3/1
f 2/3/2 58/4/2 59/5/2
f 5/6/3 57/7/3 6/2/3
f 6/2/4 91/8/4 58/4/4
f 1/1/5 7/9/5 3/10/5
f 3/10/6 61/11/6 62/12/6
f 2/3/7 60/13/7 7/9/7
f 7/9/8 92/14/8 61/11/8
f 1/1/9 8/15/9 4/16/9
f 4/16/10 64/17/10 65/18/10
f 3/10/11 63/19/11 8/15/11
f 8/15/12 94/20/12 64/17/12
f 1/1/13 9/21/13 5/6/13
f 5/6/14 55/22/14 56/23/14
f 4/16/15 66/24/15 9/21/15
f 9/21/16 93/25/16 55/22/16
f 10/26/17 15/27/17 11/28/17
f 11/28/18 66/29/18 65/30/18
f 14/31/19 69/32/19 15/27/19
f 15/27/20 93/33/20 66/29/20
f 10/26/21 16/34/21 12/35/21
f 12/35/22 70/36/22 71/37/22
f 11/28/23 64/38/23 16/34/23
f 16/34/24 94/39/24 70/36/24
f 10/26/25 17/40/25 13/41/25
f 13/41/26 73/42/26 74/43/26
f 12/35/27 72/44/27 17/40/27
f 17/40/28 98/45/28 73/42/28
f 10/26/29 18/46/29 14/31/29
f 14/31/30 67/47/30 68/48/30
f 13/41/31 75/49/31 18/46/31
f 18/46/32 97/50/32 67/47/32
f 19/51/33 24/52/33 20/53/33
f 20/53/34 75/54/34 74/55/34
f 23/56/35 78/57/35 24/52/35
f 24/52/36 97/58/36 75/54/36
f 19/51/37 25/59/37 21/60/37
f 21/60/38 79/61/38 80/62/38
f 20/53/39 73/63/39 25/59/39
f 25/59/40 98/64/40 79/61/40
f 19/51/41 26/65/41 22/66/41
f 22/66/42 82/67/42 83/68/42
f 21/60/43 81/69/43 26/65/43
f 26/65/44 96/70/44 82/67/44
f 19/51/45 27/71/45 23/56/45
f 23/56/46 76/72/46 77/73/46
f 22/66/47 84/74/47 27/71/47
f 27/71/48 95/75/48 76/72/48
f 28/76/49 33/77/49 29/78/49
f 29/78/50 84/79/50 83/80/50
f 32/81/51 87/82/51 33/77/51
f 33/77/52 95/83/52 84/79/52
f 28/76/53 34/84/53 30/85/53
f 30/85/54 88/86/54 89/87/54
f 29/78/55 82/88/55 34/84/55
f 34/84/56 96/89/56 88/86/56
f 28/76/57 35/90/57 31/91/57
f 31/91/58 60/92/58 59/93/58
f 30/85/59 90/94/59 35/90/59
f 35/90/60 92/95/60 60/92/60
f 28/76/61 36/96/61 32/81/61
f 32/81/62 85/97/62 86/98/62
f 31/91/63 58/99/63 36/96/63
f 36/96/64 91/100/64 85/97/64
f 37/101/65 42/102/65 38/103/65
f 38/103/66 69/104/66 68/105/66
f 41/106/67 55/107/67 42/102/67
f 42/102/68 93/108/68 69/104/68
f 37/101/69 43/109/69 39/110/69
f 39/110/70 78/111/70 77/112/70
f 38/103/71 67/113/71 43/109/71
f 43/109/72 97/114/72 78/111/72
f 37/101/73 44/115/73 40/116/73
f 40/116/74 87/117/74 86/118/74
f 39/110/75 76/119/75 44/115/75
f 44/115/76 95/120/76 87/117/76
f 37/101/77 45/121/77 41/106/77
f 41/106/78 57/122/78 56/123/78
f 40/116/79 85/124/79 45/121/79
f 45/121/80 91/125/80 57/122/80
f 46/126/81 51/127/81 47/128/81
f 47/128/82 72/129/82 71/130/82
f 50/131/83 79/132/83 51/127/83
f 51/127/84 98/133/84 72/129/84
f 46/126/85 52/134/85 48/135/85
f 48/135/86 63/136/86 62/137/86
f 47/128/87 70/138/87 52/134/87
f 52/134/88 94/139/88 63/136/88
f 46/126/89 53/140/89 49/141/89
f 49/141/90 90/142/90 89/143/90
f 48/135/91 61/144/91 53/140/91
f 53/140/92 92/145/92 90/142/92
f 46/126/93 54/146/93 50/131/93
f 50/131/94 81/147/94 80/148/94
f 49/141/95 88/149/95 54/146/95
f 54/146/96 96/150/96 81/147/96
f 1/1/97 5/6/97 6/2/97
f 2/3/98 6/2/98 58/4/98
f 5/6/99 56/23/99 57/7/99
f 6/2/100 57/7/100 91/8/100
f 1/1/101 2/3/101 7/9/101
f 3/10/102 7/9/102 61/11/102
f 2/3/103 59/5/103 60/13/103
f 7/9/104 60/13/104 92/14/104
f 1/1/105 3/10/105 8/15/105
f 4/16/106 8/15/106 64/17/106
f 3/10/107 62/12/107 63/19/107
f 8/15/108 63/19/108 94/20/108
f 1/1/109 4/16/109 9/21/109
f 5/6/110 9/21/110 55/22/110
f 4/16/111 65/18/111 66/24/111
f 9/21/112 66/24/112 93/25/112
f 10/26/113 14/31/113 15/27/113
f 11/28/114 15/27/114 66/29/114
f 14/31/115 68/48/115 69/32/115
f 15/27/116 69/32/116 93/33/116
f 10/26/117 11/28/117 16/34/117
f 12/35/118 16/34/118 70/36/118
f 11/28/119 65/30/119 64/38/119
f 16/34/120 64/38/120 94/39/120
f 10/26/121 12/35/121 17/40/121
f 13/41/122 17/40/122 73/42/122
f 12/35/123 71/37/123 72/44/123
f 17/40/124 72/44/124 98/45/124
f 10/26/125 13/41/125 18/46/125
f 14/31/126 18/46/126 67/47/126
f 13/41/127 74/43/127 75/49/127
f 18/46/128 75/49/128 97/50/128
f 19/51/129 23/56/129 24/52/129
f 20/53/130 24/52/130 75/54/130
f 23/56/131 77/73/131 78/57/131
f 24/52/132 78/57/132 97/58/132
f 19/51/133 20/53/133 25/59/133
f 21/60/134 25/59/134 79/61/134
f 20/53/135 74/55/135 73/63/135
f 25/59/136 73/63/136 98/64/136
f 19/51/137 21/60/137 26/65/137
f 22/66/138 26/65/138 82/67/138
f 21/60/139 80/62/139 81/69/139
f 26/65/140 81/69/140 96/70/140
f 19/51/141 22/66/141 27/71/141
f 23/56/142 27/71/142 76/72/142
f 22/66/143 83/68/143 84/74/143
f 27/71/144 84/74/144 95/75/144
f 28/76/145 32/81/145 33/77/145
f 29/78/146 33/77/146 84/79/146
f 32/81/147 86/98/147 87/82/147
f 33/77/148 87/82/148 95/83/148
f 28/76/149 29/78/149 34/84/149
f 30/85/150 34/84/150 88/86/150
f 29/78/151 83/80/151 82/88/151
f 34/84/152 82/88/152 96/89/152
f 28/76/153 30/85/153 35/90/153
f 31/91/154 35/90/154 60/92/154
f 30/85/155 89/87/155 90/94/155
f 35/90/156 90/94/156 92/95/156
f 28/76/157 31/91/157 36/96/157
f 32/81/158 36/96/158 85/97/158
f 31/91/159 59/93/159 58/99/159
f 36/96/160 58/99/160 91/100/160
f 37/101/161 41/106/161 42/102/161
f 38/103/162 42/102/162 69/104/162
f 41/106/163 56/123/163 55/107/163
f 42/102/164 55/107/164 93/108/164
f 37/101/165 38/103/165 43/109/165
f 39/110/166 43/109/166 78/111/166
f 38/103/167 68/105/167 67/113/167
f 43/109/168 67/113/168 97/114/168
f 37/101/169 39/110/169 44/115/169
f 40/116/170 44/115/170 87/117/170
f 39/110/171 77/112/171 76/119/171
f 44/115/172 76/119/172 95/120/172
f 37/101/173 40/116/173 45/121/173
f 41/106/174 45/121/174 57/122/174
f 40/116/175 86/118/175 85/124/175
f 45/121/176 85/124/176 91/125/176
f 46/126/177 50/131/177 51/127/177
f 47/128/178 51/127/178 72/129/178
f 50/131/179 80/148/179 79/132/179
f 51/127/180 79/132/180 98/133/180
f 46/126/181 47/128/181 52/134/181
f 48/135/182 52/134/182 63/136/182
f 47/128/183 71/130/183 70/138/183
f 52/134/184 70/138/184 94/139/184
f 46/126/185 48/135/185 53/140/185
f 49/141/186 53/140/186 90/142/186
f 48/135/187 62/137/187 61/144/187
f 53/140/188 61/144/188 92/145/188
f 46/126/189 49/141/189 54/146/189
f 50/131/190 54/146/190 81/147/190
f 49/141/191 89/143/191 88/149/191
f 54/146/192 88/149/192 96/150/192
